<svg width="294" height="290" viewBox="0 0 294 290" fill="none" xmlns="http://www.w3.org/2000/svg">
<g clip-path="url(#clip0_3_5)" filter="url(#filter0_d_3_5)">
<path d="M299 281H4V282H299V281Z" fill="#3F3D56"/>
<g filter="url(#filter1_ii_3_5)">
<path d="M242.227 93.109C237.46 73.3252 221.83 57.2077 202.39 52.1065C188.454 48.4489 175.114 54.3377 163.797 62.7508C162.39 63.7965 160.783 64.3827 159.251 65.1484L171.512 73.1152C174.724 75.2021 175.66 79.5334 173.59 82.7884C171.659 85.829 167.412 87.1021 164.017 84.8884L120.501 56.6171C111.539 51.8702 101.719 49.4421 91.5753 52.1065C72.1355 57.2121 56.5058 73.3252 51.739 93.109C47.3531 111.318 51.5571 128.463 61.0475 141.422C71.1614 155.234 75.1965 171.461 76.7595 188.388C78.6645 209.02 81.2319 229.583 85.8256 249.778L89.2027 264.631C90.5838 270.699 95.9092 275 102.048 275C108.097 275 113.37 270.822 114.838 264.867L129.762 204.309C131.736 196.294 138.837 190.676 146.976 190.676C155.116 190.676 162.216 196.298 164.191 204.309L179.115 264.867C180.582 270.822 185.856 275 191.904 275C198.043 275 203.369 270.699 204.75 264.631L208.127 249.778C212.721 229.587 215.284 209.02 217.193 188.388C218.756 171.457 222.791 155.234 232.905 141.422C242.409 128.468 246.613 111.322 242.227 93.109Z" fill="#EFEFEF"/>
</g>
<path d="M217.226 130.581C222.122 130.581 226.09 125.727 226.09 119.74C226.09 113.753 222.122 108.9 217.226 108.9C212.331 108.9 208.362 113.753 208.362 119.74C208.362 125.727 212.331 130.581 217.226 130.581Z" fill="#FFB8B8"/>
<path d="M240.281 207.642C240.627 207.254 240.899 206.779 241.078 206.249C241.258 205.719 241.34 205.147 241.319 204.574C241.298 204.001 241.175 203.441 240.958 202.932C240.741 202.424 240.435 201.979 240.063 201.631L238.854 188.501L232.123 190.748L235.4 202.566C234.963 203.37 234.782 204.342 234.892 205.299C235.002 206.255 235.395 207.129 235.997 207.755C236.598 208.38 237.367 208.714 238.156 208.694C238.946 208.673 239.702 208.298 240.281 207.642Z" fill="#FFB8B8"/>
<path d="M245.199 274.117L248.914 271.179L241.413 252.256L235.93 256.593L245.199 274.117Z" fill="#FFB8B8"/>
<path d="M258.31 269.73L246.634 278.966L243.716 273.449L251.05 267.648C251.62 267.197 252.257 266.888 252.925 266.738C253.593 266.588 254.279 266.6 254.943 266.774C255.607 266.949 256.237 267.281 256.796 267.753C257.355 268.224 257.832 268.826 258.201 269.524L258.31 269.73Z" fill="#2F2E41"/>
<path d="M212.297 276.04H216.721L218.827 255.17H212.297V276.04Z" fill="#FFB8B8"/>
<path d="M225.255 281.065H211.349V274.494H220.083C221.455 274.494 222.77 275.161 223.74 276.347C224.71 277.533 225.255 279.142 225.255 280.819V281.065Z" fill="#2F2E41"/>
<path d="M230.055 141.264C229.466 143.608 231.552 146.158 232.225 148.461C232.899 150.764 233.805 152.98 234.169 155.39C234.418 157.047 240.062 193.646 239.791 195.875C238.053 195.238 236.182 195.448 234.568 196.46C233.441 194.039 232.763 191.343 232.584 188.564C232.516 186.917 232.529 185.266 232.622 183.62C232.797 178.964 231.147 174.302 231.092 169.642C231.109 168.027 231.005 166.414 230.78 164.822C230.6 163.728 230.616 161.679 230.422 160.588C230.112 158.854 231.443 158.054 231.369 156.277L230.964 146.57C230.879 144.869 229.483 142.784 230.055 141.264Z" fill="#2F2E41"/>
<path d="M210.042 181.991C208.62 184.706 205.625 185.293 203.53 187.237C200.329 190.225 208.495 257.358 211.191 269.285C218.304 267.98 218.553 267.984 219.371 267.545C220.189 267.105 220.929 233.006 222.658 225.978C225.892 229.706 236.073 261.747 238.222 268.85C246.758 266.24 238.222 268.85 249.247 265.37C249.155 262.908 232.954 182.692 232.364 176.372C224.952 178.177 217.433 180.191 210.042 181.991Z" fill="#2F2E41"/>
<path d="M209.083 131.581C208.205 134.764 209.401 147.149 209.488 149.934C209.614 152.462 209.614 154.997 209.488 157.525C209.184 161.904 208.12 166.312 208.834 170.616C209.302 173.465 210.134 176.113 210.329 179.011C210.46 181.02 210.419 183.061 210.939 184.966C212.855 183.962 229.842 180.51 231.09 178.503C230.236 173.458 231.062 168.25 230.496 163.145C230.167 160.203 229.354 157.371 228.971 154.443C228.498 150.828 228.697 147.079 227.835 143.567C227.357 141.79 226.75 140.068 226.02 138.423C225.278 136.552 224.347 135.015 224.029 135.015C223.221 135.069 209.135 131.297 209.083 131.581Z" fill="#006989"/>
<path d="M205.832 207.369C205.832 207.369 208.777 200.183 208.924 196.072C208.976 194.596 212.283 188.722 213.772 187.39C217.303 184.226 219.906 163.025 218.712 157.88C216.649 148.987 213.172 140.696 209.644 132.522C209.539 132.217 209.369 131.952 209.152 131.755C208.435 131.209 207.657 132.284 207.167 133.124C205.506 135.973 202.769 137.496 200.261 139.179C197.754 140.863 195.19 143.106 194.431 146.476C193.922 148.739 194.319 151.139 194.705 153.432C195.091 155.725 196.441 157.545 197.461 159.477C198.645 161.608 201.719 171.061 201.696 172.183C201.756 179.118 201.813 186.077 201.126 192.966C200.74 196.859 200.401 204.681 200.401 204.681L205.832 207.369Z" fill="#2F2E41"/>
<path d="M232.579 199.938C227.156 184.846 227.46 167.671 224.014 151.738C222.99 147.008 221.622 142.255 221.868 137.372C221.912 136.498 222.063 135.517 222.659 135.029C223.19 134.593 223.913 134.711 224.496 135.029C225.079 135.347 225.577 135.865 226.138 136.22C227.044 136.786 228.098 136.947 228.968 137.586C230.26 138.537 230.92 140.344 231.497 142.044C232.732 145.676 233.961 149.408 234.059 153.345C234.267 160.99 231.495 168.337 232.94 175.771C233.252 177.237 233.624 178.683 234.057 180.103C235.506 185.231 236.694 190.464 237.615 195.771C237.776 196.678 232.806 200.574 232.579 199.938Z" fill="#2F2E41"/>
<path d="M215.365 196.367C215.438 195.8 215.408 195.221 215.277 194.67C215.147 194.119 214.919 193.61 214.611 193.178C214.302 192.746 213.919 192.402 213.49 192.171C213.061 191.939 212.596 191.826 212.127 191.838L204.48 182.503L200.369 189.398L208.961 196.127C209.03 197.089 209.386 197.987 209.96 198.65C210.534 199.314 211.287 199.696 212.076 199.726C212.866 199.755 213.636 199.43 214.242 198.811C214.849 198.192 215.248 197.322 215.365 196.367Z" fill="#FFB8B8"/>
<path d="M191.002 175.169C191.128 176.571 200.761 191.362 205.996 196.189C205.692 194.285 209.795 188.072 211.122 187.102C207.805 183.275 200.874 174.398 200.645 173.913C199.895 172.143 200.645 170.027 201.299 168.196C203.36 162.376 204.332 155.771 203.01 149.636C202.511 147.333 201.641 145.027 200.056 143.611C199.364 142.995 198.428 142.573 197.658 143.042C197.336 143.269 197.057 143.575 196.837 143.942C194.382 147.594 190.909 174.128 191.002 175.169Z" fill="#2F2E41"/>
<path d="M213.448 129.226C213.965 126.54 211.349 120.762 211.867 118.077C212.217 116.258 215.714 117.494 216.53 115.915C217.346 114.335 218.713 113.055 220.241 113.034C221.997 113.01 223.725 114.603 225.389 113.915C227.07 113.219 227.608 110.402 226.864 108.43C226.121 106.458 224.519 105.202 222.936 104.217C220.241 102.54 217.103 101.316 214.219 102.425C212.475 103.096 211.017 104.549 209.606 105.97C208.32 107.266 207.012 108.59 206.113 110.306C204.352 113.667 204.458 118.195 205.964 121.737C207.469 125.279 210.211 127.878 213.233 129.387" fill="#2F2E41"/>
</g>
<defs>
<filter id="filter0_d_3_5" x="0" y="0" width="294" height="290" filterUnits="userSpaceOnUse" color-interpolation-filters="sRGB">
<feFlood flood-opacity="0" result="BackgroundImageFix"/>
<feColorMatrix in="SourceAlpha" type="matrix" values="0 0 0 0 0 0 0 0 0 0 0 0 0 0 0 0 0 0 127 0" result="hardAlpha"/>
<feOffset dy="4"/>
<feGaussianBlur stdDeviation="2"/>
<feComposite in2="hardAlpha" operator="out"/>
<feColorMatrix type="matrix" values="0 0 0 0 0 0 0 0 0 0 0 0 0 0 0 0 0 0 0.25 0"/>
<feBlend mode="normal" in2="BackgroundImageFix" result="effect1_dropShadow_3_5"/>
<feBlend mode="normal" in="SourceGraphic" in2="effect1_dropShadow_3_5" result="shape"/>
</filter>
<filter id="filter1_ii_3_5" x="40" y="51" width="203.965" height="234" filterUnits="userSpaceOnUse" color-interpolation-filters="sRGB">
<feFlood flood-opacity="0" result="BackgroundImageFix"/>
<feBlend mode="normal" in="SourceGraphic" in2="BackgroundImageFix" result="shape"/>
<feColorMatrix in="SourceAlpha" type="matrix" values="0 0 0 0 0 0 0 0 0 0 0 0 0 0 0 0 0 0 127 0" result="hardAlpha"/>
<feOffset dy="10"/>
<feGaussianBlur stdDeviation="2"/>
<feComposite in2="hardAlpha" operator="arithmetic" k2="-1" k3="1"/>
<feColorMatrix type="matrix" values="0 0 0 0 0 0 0 0 0 0 0 0 0 0 0 0 0 0 0.25 0"/>
<feBlend mode="normal" in2="shape" result="effect1_innerShadow_3_5"/>
<feColorMatrix in="SourceAlpha" type="matrix" values="0 0 0 0 0 0 0 0 0 0 0 0 0 0 0 0 0 0 127 0" result="hardAlpha"/>
<feOffset dx="-10" dy="10"/>
<feGaussianBlur stdDeviation="5"/>
<feComposite in2="hardAlpha" operator="arithmetic" k2="-1" k3="1"/>
<feColorMatrix type="matrix" values="0 0 0 0 0 0 0 0 0 0 0 0 0 0 0 0 0 0 0.25 0"/>
<feBlend mode="normal" in2="effect1_innerShadow_3_5" result="effect2_innerShadow_3_5"/>
</filter>
<clipPath id="clip0_3_5">
<rect width="286" height="282" fill="white" transform="translate(4)"/>
</clipPath>
</defs>
</svg>
